<svg width="150" height="200" viewBox="0 0 150 200" fill="none" xmlns="http://www.w3.org/2000/svg">
<path d="M148.556 21.0758C147.47 19.856 145.913 19.1562 144.279 19.1562C144.252 19.1562 144.225 19.1562 144.202 19.1562C140.934 19.1562 137.933 17.8098 135.748 15.3636C133.559 12.9141 132.53 9.64141 132.921 6.38539C133.114 4.76572 132.607 3.13937 131.521 1.91962C130.435 0.699861 128.877 0 127.243 0H22.7533C21.1193 0 19.5588 0.699861 18.4761 1.91962C17.3901 3.13937 16.8822 4.76572 17.076 6.38539C17.4703 9.64141 16.4378 12.9141 14.2491 15.3636C12.0637 17.8098 9.06299 19.1562 5.79496 19.1562C5.76823 19.1562 5.74149 19.1562 5.7181 19.1562C4.08409 19.1562 2.52358 19.856 1.44092 21.0758C0.34824 22.3022 -0.159673 23.9386 0.0441616 25.5682C0.314827 27.7211 0.61222 29.844 0.933008 31.8736C3.18521 46.2008 6.98788 60.288 12.2308 73.742C21.547 97.6472 35.9825 120.406 53.97 139.559C56.0184 141.742 59.4134 141.972 61.7424 140.092C61.9229 139.945 62.1066 139.792 62.2837 139.642C67.2125 135.483 71.9776 131.057 76.4486 126.491C77.6482 125.268 78.2296 123.572 78.0391 121.872C77.8487 120.173 76.8997 118.646 75.4594 117.72C73.6383 116.547 64.5527 110.268 64.5493 101.823L64.0147 36.696H82.4834C90.6434 36.696 97.5404 43.398 97.5437 51.3298C97.5437 53.6093 97.0325 55.7922 96.0267 57.8251C93.5339 62.8541 88.4915 65.9768 82.8643 65.9768H79.1285C75.9707 65.9768 73.4111 68.5297 73.4111 71.679C73.4111 74.8284 75.9707 77.3812 79.1285 77.3812H82.8643C92.8722 77.3812 101.841 71.8257 106.275 62.8808C108.07 59.2648 108.978 55.379 108.978 51.3264C108.975 44.3878 106.165 37.8358 101.066 32.8801C96.03 27.9844 89.4271 25.2883 82.48 25.2883H58.2472C56.7234 25.2883 55.2598 25.8948 54.1872 26.9746C53.1145 28.0544 52.5164 29.5174 52.5298 31.0371L53.1112 101.866C53.1112 111.378 58.8553 118.606 63.7106 123.019C62.0465 124.608 60.3457 126.175 58.6181 127.708C43.3372 110.491 31.037 90.5086 22.8903 69.6061C17.9415 56.912 14.356 43.6246 12.2308 30.104C12.2074 29.954 12.184 29.8041 12.1606 29.6508C16.2206 28.4677 19.9163 26.1648 22.79 22.9488C25.7172 19.6694 27.6085 15.6535 28.3002 11.4044H121.7C122.391 15.6535 124.279 19.6694 127.21 22.9488C130.084 26.1648 133.779 28.4677 137.839 29.6508C137.816 29.8041 137.793 29.954 137.769 30.104C135.644 43.6246 132.059 56.9153 127.11 69.6095C123.334 79.3109 118.706 88.7923 113.363 97.7872C113.343 97.8172 113.322 97.8505 113.306 97.8805C111.545 100.85 109.637 103.859 107.645 106.825C107.618 106.862 107.595 106.902 107.568 106.942C97.6005 121.749 85.6077 135.11 71.8907 146.684C71.7503 146.804 71.61 146.921 71.4663 147.041L71.3326 147.154C66.1332 151.503 60.6598 155.612 55.0593 159.372C52.1388 161.331 49.1181 163.241 46.0706 165.05C43.8752 166.357 41.6263 167.633 39.3808 168.85C30.0846 173.882 24.3071 183.617 24.3071 194.258C24.3071 195.771 24.9086 197.221 25.9812 198.29C27.0539 199.36 28.5074 199.96 30.0245 199.96H119.972C123.13 199.96 125.69 197.407 125.69 194.258C125.69 183.62 119.919 173.889 110.633 168.86C109.125 168.043 107.608 167.197 106.121 166.337C102.088 164.014 98.085 161.511 94.2256 158.895C91.6125 157.125 88.0571 157.802 86.2827 160.405C84.5084 163.011 85.1867 166.557 87.7964 168.326C91.8865 171.099 96.1269 173.752 100.397 176.212C101.968 177.118 103.575 178.018 105.176 178.884C109.062 180.987 111.926 184.47 113.316 188.556H36.6842C38.0743 184.467 40.9446 180.984 44.8342 178.878C47.2134 177.588 49.5992 176.235 51.925 174.852C55.1496 172.939 58.3507 170.913 61.445 168.836C67.3763 164.854 73.1738 160.498 78.6707 155.902L78.7876 155.806C78.9714 155.652 79.1552 155.499 79.3089 155.369C93.8379 143.108 106.566 128.918 117.139 113.191C117.162 113.154 117.189 113.117 117.212 113.081C117.57 112.548 117.92 112.011 118.275 111.478C118.425 111.248 118.579 111.021 118.726 110.795C119.224 110.028 119.718 109.262 120.203 108.495C120.213 108.478 120.226 108.458 120.236 108.442C120.734 107.652 121.225 106.865 121.71 106.079C121.823 105.892 121.934 105.709 122.044 105.522C122.398 104.939 122.756 104.356 123.1 103.773C123.12 103.743 123.137 103.713 123.153 103.683C128.837 94.1246 133.756 84.0532 137.769 73.742C143.015 60.288 146.815 46.2008 149.067 31.8736C149.388 29.8407 149.685 27.7178 149.956 25.5649C150.16 23.9386 149.652 22.3022 148.559 21.0725L148.556 21.0758Z" fill="white"/>
</svg>
