<?xml version="1.0" encoding="UTF-8"?>
<svg id="Layer_1" xmlns="http://www.w3.org/2000/svg" version="1.1" viewBox="0 0 1406.3 398.1">
  <!-- Generator: Adobe Illustrator 29.2.1, SVG Export Plug-In . SVG Version: 2.1.0 Build 116)  -->
  <defs>
    <style>
      .st0 {
        fill: #fff;
      }
    </style>
  </defs>
  <path class="st0" d="M295,42c-2.2-2.4-5.2-3.8-8.5-3.8,0,0-.1,0-.2,0-6.5,0-12.4-2.7-16.8-7.6-4.3-4.9-6.4-11.4-5.6-17.9.4-3.2-.6-6.5-2.8-8.9-2.2-2.4-5.2-3.8-8.5-3.8H45.2c-3.2,0-6.3,1.4-8.5,3.8-2.2,2.4-3.2,5.7-2.8,8.9.8,6.5-1.3,13-5.6,17.9-4.3,4.9-10.3,7.6-16.8,7.6,0,0-.1,0-.2,0-3.2,0-6.3,1.4-8.5,3.8C.7,44.4-.3,47.7,0,50.9c.5,4.3,1.1,8.5,1.8,12.6,4.5,28.5,12,56.6,22.4,83.4,18.5,47.6,47.2,92.9,82.9,131,4.1,4.3,10.8,4.8,15.4,1.1.4-.3.7-.6,1.1-.9,9.8-8.3,19.3-17.1,28.1-26.2,2.4-2.4,3.5-5.8,3.2-9.2-.4-3.4-2.3-6.4-5.1-8.3-3.6-2.3-21.7-14.8-21.7-31.6l-1.1-129.7h36.7c16.2,0,29.9,13.3,29.9,29.1,0,4.5-1,8.9-3,12.9-4.9,10-15,16.2-26.1,16.2h-7.4c-6.3,0-11.4,5.1-11.4,11.4s5.1,11.4,11.4,11.4h7.4c19.9,0,37.7-11.1,46.5-28.9,3.6-7.2,5.4-14.9,5.4-23,0-13.8-5.6-26.9-15.7-36.7-10-9.7-23.1-15.1-36.9-15.1h-48.1c-3,0-5.9,1.2-8.1,3.4-2.1,2.1-3.3,5.1-3.3,8.1l1.2,141c0,18.9,11.4,33.3,21,42.1-3.3,3.2-6.7,6.3-10.1,9.3-30.3-34.3-54.8-74.1-70.9-115.7-9.8-25.3-16.9-51.7-21.2-78.6,0-.3,0-.6-.1-.9,8.1-2.4,15.4-6.9,21.1-13.3,5.8-6.5,9.6-14.5,10.9-23h185.5c1.4,8.5,5.1,16.5,10.9,23,5.7,6.4,13,11,21.1,13.3,0,.3,0,.6-.1.9-4.2,26.9-11.3,53.4-21.2,78.6-7.5,19.3-16.7,38.2-27.3,56.1,0,0,0,.1-.1.2-3.5,5.9-7.3,11.9-11.2,17.8,0,0-.1.2-.2.2-19.8,29.5-43.6,56.1-70.8,79.1-.3.2-.6.5-.8.7l-.3.2c-10.3,8.7-21.2,16.8-32.3,24.3-5.8,3.9-11.8,7.7-17.8,11.3-4.4,2.6-8.8,5.1-13.3,7.6-18.5,10-29.9,29.4-29.9,50.6s1.2,5.9,3.3,8c2.1,2.1,5,3.3,8,3.3h178.6c6.3,0,11.4-5.1,11.4-11.4,0-21.2-11.5-40.6-29.9-50.6-3-1.6-6-3.3-9-5-8-4.6-16-9.6-23.6-14.8-5.2-3.5-12.2-2.2-15.8,3-3.5,5.2-2.2,12.2,3,15.8,8.1,5.5,16.5,10.8,25,15.7,3.1,1.8,6.3,3.6,9.5,5.3,7.7,4.2,13.4,11.1,16.2,19.3H72.8c2.8-8.1,8.5-15.1,16.2-19.3,4.7-2.6,9.5-5.3,14.1-8,6.4-3.8,12.8-7.8,18.9-12,11.8-7.9,23.3-16.6,34.2-25.7l.2-.2c.4-.3.7-.6,1-.9,28.8-24.4,54.1-52.7,75.1-84h0c0,0,0-.1.1-.2.7-1.1,1.4-2.1,2.1-3.2.3-.5.6-.9.9-1.4,1-1.5,2-3,2.9-4.6,0,0,0,0,0-.1,1-1.6,2-3.1,2.9-4.7.2-.4.4-.7.7-1.1.7-1.2,1.4-2.3,2.1-3.5,0,0,0-.1.1-.2,11.3-19,21.1-39.1,29-59.6,10.4-26.8,18-54.8,22.4-83.4.6-4,1.2-8.3,1.8-12.6.4-3.2-.6-6.5-2.8-8.9Z"/>
  <g>
    <path class="st0" d="M555.6,81.3c-10.1-5.1-21.5-7.6-34.1-7.6h-78.4v199.1h38.5v-73.6h39.9c12.6,0,24-2.5,34.1-7.6,10.1-5.1,18.1-12.4,23.9-21.8,5.8-9.4,8.8-20.6,8.8-33.4s-2.9-23.9-8.8-33.3c-5.9-9.3-13.8-16.6-23.9-21.7ZM545.4,153c-2.7,4.6-6.6,8.2-11.5,10.8-4.9,2.5-10.4,3.8-16.4,3.8h-36v-62.6h36c6,0,11.5,1.3,16.4,3.8,4.9,2.5,8.7,6.1,11.5,10.8,2.7,4.6,4.1,10.1,4.1,16.6s-1.4,12.2-4.1,16.8Z"/>
    <rect class="st0" x="599.4" y="68" width="37.1" height="204.7"/>
    <path class="st0" d="M751.7,148.8c-3.8-3.9-8.2-7.2-13.3-9.8-7.7-4-16.4-5.9-26-5.9s-23.9,3.1-33.8,9.3-17.7,14.7-23.4,25.5c-5.7,10.8-8.5,22.9-8.5,36.5s2.8,25.5,8.5,36.2c5.7,10.8,13.4,19.3,23.4,25.5s21.1,9.3,33.6,9.3,18.6-2,26.5-5.9c5.1-2.6,9.4-5.8,13.2-9.6v12.8h37.4v-136.8h-37.4v12.9ZM744.4,230.8c-6.4,7-14.8,10.5-25.2,10.5s-12.6-1.6-17.8-4.8c-5.3-3.2-9.4-7.5-12.3-13-2.9-5.5-4.4-11.9-4.4-19.3s1.5-13.5,4.4-19c2.9-5.5,7-9.8,12.2-13,5.2-3.2,11.2-4.8,18-4.8s13,1.6,18.1,4.7,9.2,7.5,12.2,13.2c3,5.7,4.5,12.1,4.5,19.3,0,10.6-3.2,19.4-9.6,26.3Z"/>
    <polygon class="st0" points="864.6 222.7 833.5 135.9 792.8 135.9 844.9 260.9 812 330.1 851.7 330.1 876.6 273.8 937.7 135.9 897 135.9 864.6 222.7"/>
    <path class="st0" d="M1082.4,102.9c-5.9-9.3-13.8-16.6-23.9-21.7-10.1-5.1-21.5-7.6-34.1-7.6h-78.4v199.1h38.5v-73.6h39.9c12.6,0,24-2.5,34.1-7.6,10.1-5.1,18.1-12.4,23.9-21.8,5.8-9.4,8.8-20.6,8.8-33.4s-2.9-23.9-8.8-33.3ZM1048.3,153c-2.7,4.6-6.6,8.2-11.5,10.8-4.9,2.5-10.4,3.8-16.4,3.8h-36v-62.6h36c6,0,11.5,1.3,16.4,3.8,4.9,2.5,8.7,6.1,11.5,10.8,2.7,4.6,4.1,10.1,4.1,16.6s-1.4,12.2-4.1,16.8Z"/>
    <path class="st0" d="M1192.6,148.8c-3.8-3.9-8.2-7.2-13.3-9.8-7.7-4-16.4-5.9-26-5.9s-23.9,3.1-33.8,9.3-17.7,14.7-23.4,25.5c-5.7,10.8-8.5,22.9-8.5,36.5s2.8,25.5,8.5,36.2c5.7,10.8,13.4,19.3,23.4,25.5s21.1,9.3,33.6,9.3,18.6-2,26.5-5.9c5.1-2.6,9.4-5.8,13.2-9.6v12.8h37.4v-136.8h-37.4v12.9ZM1185.2,230.8c-6.4,7-14.8,10.5-25.2,10.5s-12.6-1.6-17.8-4.8c-5.3-3.2-9.4-7.5-12.3-13-2.9-5.5-4.4-11.9-4.4-19.3s1.5-13.5,4.4-19c2.9-5.5,7-9.8,12.2-13,5.2-3.2,11.2-4.8,18-4.8s13,1.6,18.1,4.7,9.2,7.5,12.2,13.2c3,5.7,4.5,12.1,4.5,19.3,0,10.6-3.2,19.4-9.6,26.3Z"/>
    <rect class="st0" x="1248.1" y="68" width="37.1" height="204.7"/>
    <path class="st0" d="M1386.9,199.1c-5.2-3.2-10.7-5.7-16.4-7.5-5.8-1.8-11.3-3.4-16.6-5-5.3-1.5-9.5-3.2-12.7-5-3.2-1.8-4.8-4.4-4.8-7.8s1.4-5.4,4.2-7.1,7.1-2.5,12.7-2.5,11.4,1.2,16.6,3.5c5.2,2.4,9.9,6,14,10.9l22.4-22.7c-6-7.9-13.6-13.8-22.8-17.7-9.2-3.9-19.4-5.8-30.7-5.8s-20.1,1.7-28,5.2c-7.9,3.5-14.1,8.5-18.4,15-4.3,6.5-6.5,14.1-6.5,22.8s1.7,15.1,5.1,20.4c3.4,5.3,7.7,9.4,12.9,12.3,5.2,2.9,10.7,5.2,16.6,6.9,5.8,1.7,11.4,3.3,16.6,4.8,5.2,1.5,9.5,3.3,12.9,5.2,3.4,2,5.1,4.9,5.1,8.6s-1.6,5.7-4.8,7.5c-3.2,1.8-7.8,2.7-13.9,2.7s-14.2-1.3-20.4-4c-6.2-2.6-11.6-6.7-16.1-12.2l-22.4,22.4c4.5,5.3,9.9,9.9,16.1,13.7,6.2,3.9,13.1,6.8,20.5,8.8,7.5,2,15.1,3,23.1,3,16.4,0,29.4-3.9,39.1-11.8,9.6-7.8,14.4-18.4,14.4-31.9s-1.7-15.1-5-20.4c-3.3-5.3-7.6-9.5-12.7-12.7Z"/>
  </g>
</svg>