<svg width="123" height="165" viewBox="0 0 123 165" fill="none" xmlns="http://www.w3.org/2000/svg">
<path d="M121.446 17.8193C120.557 16.8188 119.284 16.2465 117.946 16.2465C117.926 16.2465 117.905 16.2465 117.88 16.2465C115.208 16.2465 112.759 15.1431 110.972 13.138C109.181 11.1288 108.341 8.44853 108.662 5.77645C108.823 4.4507 108.407 3.11672 107.517 2.11624C106.632 1.11575 105.356 0.543457 104.018 0.543457H18.6018C17.2637 0.543457 15.9915 1.11575 15.1022 2.11624C14.217 3.11672 13.797 4.4507 13.9576 5.77645C14.2787 8.44441 13.4347 11.1288 11.6478 13.138C9.86096 15.1431 7.40709 16.2465 4.73913 16.2465C4.71855 16.2465 4.69796 16.2465 4.67326 16.2465C3.33516 16.2465 2.06294 16.8188 1.17362 17.8193C0.284296 18.8239 -0.131544 20.1661 0.0372626 21.5001C0.259593 23.2664 0.502509 25.0039 0.761894 26.6714C2.60229 38.4137 5.7108 49.9625 9.99683 60.9925C17.6137 80.5905 29.4137 99.2457 44.1204 114.941C45.7961 116.727 48.5711 116.921 50.4733 115.377C50.6215 115.258 50.7697 115.134 50.9138 115.011C54.9446 111.601 58.8395 107.974 62.4914 104.232C63.4713 103.227 63.9489 101.84 63.7925 100.444C63.636 99.048 62.862 97.8005 61.6845 97.0388C60.194 96.0754 52.7666 90.9289 52.7666 84.0078L52.3301 30.6239H67.428C74.0979 30.6239 79.7385 36.1204 79.7426 42.6215C79.7426 44.4907 79.3268 46.2817 78.5033 47.9451C76.4653 52.0664 72.344 54.6273 67.745 54.6273H64.69C62.1085 54.6273 60.017 56.7189 60.017 59.3004C60.017 61.8819 62.1085 63.9734 64.69 63.9734H67.745C75.9259 63.9734 83.2587 59.4198 86.886 52.087C88.3517 49.1226 89.0969 45.9359 89.0969 42.6174C89.0969 36.9274 86.7954 31.5585 82.6288 27.4989C78.5116 23.4846 73.1139 21.2778 67.4321 21.2778H47.62C46.3725 21.2778 45.1785 21.776 44.3015 22.6612C43.4246 23.5464 42.9346 24.7445 42.947 25.992L43.4246 84.0531C43.4246 91.8511 48.1182 97.7758 52.0872 101.391C50.7244 102.696 49.3369 103.976 47.9247 105.236C35.433 91.1224 25.3747 74.7441 18.7171 57.6123C14.674 47.2081 11.7384 36.3139 10.0009 25.2303C9.98036 25.1068 9.96389 24.9833 9.9433 24.8598C13.2618 23.8881 16.2838 22.0024 18.6348 19.3674C21.0269 16.6789 22.5749 13.3892 23.139 9.90602H99.4929C100.057 13.3892 101.601 16.683 103.997 19.3674C106.348 22.0065 109.37 23.8922 112.689 24.8639C112.668 24.9874 112.652 25.1109 112.631 25.2345C110.894 36.318 107.962 47.2122 103.915 57.6164C100.827 65.5709 97.0473 73.3401 92.6748 80.714C92.6583 80.7388 92.6419 80.7676 92.6295 80.7923C91.1885 83.2256 89.6322 85.6918 88.0018 88.1251C87.9812 88.158 87.9606 88.1868 87.94 88.2197C79.792 100.357 69.9848 111.309 58.7736 120.795C58.6583 120.894 58.543 120.989 58.4277 121.088L58.3166 121.178C54.0676 124.744 49.5922 128.112 45.0138 131.195C42.6258 132.801 40.1555 134.366 37.6646 135.852C35.8695 136.922 34.0291 137.968 32.1928 138.965C24.5924 143.09 19.8699 151.069 19.8699 159.789C19.8699 161.029 20.364 162.219 21.241 163.096C22.1179 163.973 23.3078 164.467 24.5471 164.467H98.0807C100.662 164.467 102.754 162.375 102.754 159.794C102.754 151.073 98.0354 143.098 90.4433 138.973C89.2122 138.302 87.9729 137.61 86.7584 136.906C83.4605 135.004 80.1873 132.949 77.0335 130.804C74.8966 129.351 71.9899 129.907 70.5406 132.043C69.0872 134.18 69.6431 137.087 71.7799 138.536C75.1231 140.809 78.5898 142.983 82.0812 145C83.3658 145.746 84.6792 146.483 85.9884 147.191C89.1669 148.916 91.5055 151.769 92.6419 155.121H29.986C31.1223 151.769 33.4691 148.912 36.6476 147.187C38.5951 146.129 40.5425 145.021 42.4447 143.889C45.0797 142.32 47.6983 140.661 50.2262 138.96C55.0763 135.695 59.8152 132.126 64.3071 128.359L64.4018 128.28C64.5542 128.153 64.7024 128.029 64.8259 127.922C76.7041 117.872 87.1083 106.241 95.7545 93.3498C95.7751 93.321 95.7957 93.2881 95.8121 93.2592C96.1045 92.8228 96.3927 92.3823 96.6809 91.9458C96.8044 91.7606 96.9279 91.5712 97.0514 91.3859C97.459 90.7601 97.8625 90.1301 98.2578 89.5002C98.266 89.4837 98.2784 89.4714 98.2866 89.4549C98.6942 88.8085 99.0977 88.1621 99.4929 87.5157C99.5876 87.3634 99.6741 87.211 99.7688 87.0587C100.061 86.5811 100.349 86.1035 100.633 85.6259C100.65 85.6012 100.662 85.5765 100.679 85.5518C105.327 77.7167 109.345 69.4617 112.627 61.009C116.917 49.979 120.021 38.4343 121.866 26.6878C122.129 25.0204 122.372 23.2788 122.591 21.5166C122.755 20.1826 122.344 18.8404 121.45 17.8358L121.446 17.8193Z" fill="url(#paint0_linear_22_131)"/>
<defs>
<linearGradient id="paint0_linear_22_131" x1="0.000366211" y1="164.467" x2="122.626" y2="164.467" gradientUnits="userSpaceOnUse">
<stop stop-color="#41FFBA"/>
<stop offset="1" stop-color="#8CC63F"/>
</linearGradient>
</defs>
</svg>
